<svg xmlns="http://www.w3.org/2000/svg" width="35" height="35" viewBox="0 0 35 35" fill="none">
  <path d="M30.8984 3.14539V29.8055C30.8984 30.2198 30.6489 30.5937 30.2654 30.753C29.8662 30.9164 29.4314 30.8138 29.1478 30.5308C29.0726 30.455 21.6945 23.3264 14.3555 22.6907V10.2609C21.7068 9.62586 29.0726 2.49597 29.1478 2.42009C29.4417 2.12683 29.8819 2.0366 30.2654 2.19793C30.6489 2.35652 30.8984 2.73113 30.8984 3.14539Z" fill="white"/>
  <path d="M35 16.4756C35 17.9911 34.1742 19.3166 32.9492 20.0269V12.9243C34.1742 13.6346 35 14.9601 35 16.4756Z" fill="white"/>
  <path d="M15.9159 28.3596C16.1091 28.0952 16.1642 27.7547 16.0641 27.4423C15.777 26.5431 15.5801 25.6947 15.4738 24.9162C14.7799 24.7776 14.0846 24.6876 13.3947 24.6829C13.4562 25.3324 13.5577 26.008 13.7329 26.7294H12.211C11.9996 26.0775 11.8006 25.3954 11.6462 24.6786H6.15059C5.87298 24.6786 5.61048 24.6237 5.33984 24.5967C5.85514 28.6632 7.1796 32.0624 7.24905 32.2369C7.40525 32.6264 7.78178 32.8818 8.20137 32.8818H13.3283C14.1253 32.8818 14.6168 32.0104 14.2075 31.3297C14.1945 31.3079 13.6119 30.2966 12.9722 28.7803H15.0877C15.4151 28.7802 15.7225 28.624 15.9159 28.3596Z" fill="white"/>
  <path d="M6.15234 22.6279H12.3047V10.3232H6.15234C2.75974 10.3232 0 13.083 0 16.4756C0 19.8682 2.75974 22.6279 6.15234 22.6279Z" fill="white"/>
</svg>