<svg xmlns="http://www.w3.org/2000/svg" width="35" height="35" viewBox="0 0 35 35" fill="none">
  <path d="M30.8984 3.14514V29.8053C30.8984 30.2196 30.6489 30.5935 30.2654 30.7528C29.8662 30.9161 29.4314 30.8136 29.1478 30.5306C29.0726 30.4547 21.6945 23.3262 14.3555 22.6905V10.2607C21.7068 9.62561 29.0726 2.49573 29.1478 2.41985C29.4417 2.12659 29.8819 2.03635 30.2654 2.19768C30.6489 2.35628 30.8984 2.73089 30.8984 3.14514Z" fill="black"/>
  <path d="M35 16.4753C35 17.9909 34.1742 19.3164 32.9492 20.0266V12.9241C34.1742 13.6343 35 14.9598 35 16.4753Z" fill="black"/>
  <path d="M15.9159 28.3593C16.1091 28.095 16.1642 27.7545 16.0641 27.4421C15.777 26.5429 15.5801 25.6945 15.4738 24.9159C14.7799 24.7774 14.0846 24.6874 13.3947 24.6826C13.4562 25.3321 13.5577 26.0078 13.7329 26.7292H12.211C11.9996 26.0773 11.8006 25.3951 11.6462 24.6784H6.15059C5.87298 24.6784 5.61048 24.6234 5.33984 24.5964C5.85514 28.6629 7.1796 32.0622 7.24905 32.2367C7.40525 32.6262 7.78178 32.8816 8.20137 32.8816H13.3283C14.1253 32.8816 14.6168 32.0101 14.2075 31.3295C14.1945 31.3076 13.6119 30.2963 12.9722 28.78H15.0877C15.4151 28.78 15.7225 28.6238 15.9159 28.3593Z" fill="black"/>
  <path d="M6.15234 22.6277H12.3047V10.323H6.15234C2.75974 10.323 0 13.0827 0 16.4753C0 19.8679 2.75974 22.6277 6.15234 22.6277Z" fill="black"/>
</svg>