<svg xmlns="http://www.w3.org/2000/svg" width="35" height="35" viewBox="0 0 35 35" fill="none">
  <path d="M7.80725 25.1732C7.80725 24.6421 7.37707 24.2119 6.84595 24.2119H2.03943C1.50831 24.2119 1.07812 24.6421 1.07812 25.1732V32.9277C1.07812 33.4589 1.50831 33.889 2.03943 33.889H6.84595C7.37707 33.889 7.80725 33.4589 7.80725 32.9277V25.1732Z" fill="black"/>
  <path d="M15.5608 18.4443H10.7543C10.2232 18.4443 9.79297 18.8745 9.79297 19.4056V32.928C9.79297 33.4591 10.2232 33.8893 10.7543 33.8893H15.5608C16.0919 33.8893 16.5221 33.4591 16.5221 32.928V19.4056C16.5221 18.8745 16.0919 18.4443 15.5608 18.4443Z" fill="black"/>
  <path d="M24.2131 16.5215H19.4066C18.8755 16.5215 18.4453 16.9517 18.4453 17.4828V32.9277C18.4453 33.4589 18.8755 33.889 19.4066 33.889H24.2131C24.7443 33.889 25.1744 33.4589 25.1744 32.9277V17.4828C25.1744 16.9517 24.7443 16.5215 24.2131 16.5215Z" fill="black"/>
  <path d="M32.928 8.83105H28.1215C27.5903 8.83105 27.1602 9.26124 27.1602 9.79236V32.9277C27.1602 33.4589 27.5903 33.889 28.1215 33.889H32.928C33.4591 33.889 33.8893 33.4589 33.8893 32.9277V9.79236C33.8893 9.26124 33.4591 8.83105 32.928 8.83105Z" fill="black"/>
  <path d="M4.505 22.2253C6.09516 22.2253 7.38892 20.9316 7.38892 19.3414C7.38892 19.0713 7.33965 18.8151 7.26995 18.5672L11.0154 15.9232C11.4857 16.257 12.0568 16.4575 12.6761 16.4575C14.1351 16.4575 15.3315 15.3648 15.5211 13.9569L19.3563 13.1494C19.864 13.977 20.7689 14.5349 21.8085 14.5349C23.3986 14.5349 24.6924 13.2412 24.6924 11.651C24.6924 11.2665 24.6135 10.9008 24.4765 10.5651L29.0773 6.47558C29.4899 6.70329 29.9565 6.84448 30.4602 6.84448C32.0504 6.84448 33.3441 5.55073 33.3441 3.96057C33.3441 2.37041 32.0504 1.07666 30.4602 1.07666C28.87 1.07666 27.5763 2.37041 27.5763 3.96057C27.5763 4.34509 27.6552 4.71079 27.7922 5.04644L23.1913 9.13599C22.7788 8.90828 22.3122 8.76709 21.8085 8.76709C20.3495 8.76709 19.1531 9.85977 18.9634 11.2677L15.1282 12.0752C14.6205 11.2477 13.7157 10.6897 12.6761 10.6897C11.0859 10.6897 9.79218 11.9835 9.79218 13.5736C9.79218 13.8438 9.84144 14.0999 9.91114 14.3479L6.16566 16.9918C5.69542 16.658 5.12424 16.4575 4.505 16.4575C2.91485 16.4575 1.62109 17.7513 1.62109 19.3414C1.62109 20.9316 2.91485 22.2253 4.505 22.2253Z" fill="black"/>
</svg>