<svg xmlns="http://www.w3.org/2000/svg" width="35" height="35" viewBox="0 0 35 35" fill="none">
  <g clip-path="url(#clip0_2550_945)">
    <path d="M17.5 0C7.87499 0 0 7.87499 0 17.5C0 27.1249 7.87499 34.9999 17.5 34.9999C27.1249 34.9999 34.9999 27.1249 34.9999 17.5C34.9999 7.87499 27.125 0 17.5 0ZM17.5 31.5C9.79994 31.5 3.49994 25.2 3.49994 17.5C3.49994 9.79994 9.79994 3.49994 17.5 3.49994C25.2 3.49994 31.5 9.80002 31.5 17.5C31.5 25.1999 25.2 31.5 17.5 31.5Z" fill="black"/>
    <path d="M17.5 7C11.725 7 7 11.725 7 17.5C7 23.275 11.725 28 17.5 28C23.275 28 28 23.275 28 17.5C28 11.725 23.275 7 17.5 7ZM17.5 24.5C13.65 24.5 10.5 21.35 10.5 17.5001C10.5 13.6501 13.65 10.5 17.5 10.5C21.35 10.5 24.5 13.65 24.5 17.5C24.5 21.35 21.35 24.5 17.5 24.5Z" fill="black"/>
    <path d="M17.5 21C19.433 21 21 19.433 21 17.5C21 15.567 19.433 14 17.5 14C15.567 14 14 15.567 14 17.5C14 19.433 15.567 21 17.5 21Z" fill="black"/>
  </g>
  <defs>
    <clipPath id="clip0_2550_945">
      <rect width="35" height="35" fill="white"/>
    </clipPath>
  </defs>
</svg>