<svg xmlns="http://www.w3.org/2000/svg" width="27" height="22" viewBox="0 0 27 22" fill="none">
<g clip-path="url(#clip0_2418_345)">
<path d="M10.4071 4.26092C10.4071 4.81533 10.4071 7.28988 10.4071 7.28988H7.8125V10.9937H10.4071V22.0001H15.7371V10.994H19.3138C19.3138 10.994 19.6487 9.21805 19.8111 7.27622C19.3456 7.27622 15.7573 7.27622 15.7573 7.27622C15.7573 7.27622 15.7573 5.12146 15.7573 4.74377C15.7573 4.36527 16.3384 3.85613 16.9128 3.85613C17.4861 3.85613 18.696 3.85613 19.8167 3.85613C19.8167 3.35185 19.8167 1.60945 19.8167 0.000244154C18.3206 0.000244154 16.6186 0.000244154 15.8683 0.000244154C10.2754 -1.15923e-05 10.4071 3.70749 10.4071 4.26092Z" fill="#C5D1DF"/>
</g>
<defs>
<clipPath id="clip0_2418_345">
<rect width="25.7231" height="22" fill="white" transform="translate(0.953125)"/>
</clipPath>
</defs>
</svg>