<svg width="42" height="24" viewBox="0 0 42 24" fill="none" xmlns="http://www.w3.org/2000/svg">
<path d="M15.454 17.9724L9.48741 12.0058C9.38978 11.9082 9.38978 11.7499 9.48741 11.6523L15.3593 5.78036C15.6522 5.48747 15.6522 5.01259 15.3593 4.7197C15.0664 4.42681 14.5915 4.42681 14.2986 4.7197L8.42675 10.5916C7.74334 11.275 7.74334 12.383 8.42675 13.0665L14.3933 19.033C14.6862 19.3259 15.1611 19.3259 15.454 19.033C15.7469 18.7401 15.7469 18.2653 15.454 17.9724Z" fill="white"/>
<path d="M26.546 5.78032L32.5126 11.7469C32.6102 11.8445 32.6102 12.0028 32.5126 12.1004L26.6407 17.9723C26.3478 18.2652 26.3478 18.7401 26.6407 19.033C26.9336 19.3259 27.4085 19.3259 27.7014 19.033L33.5732 13.1611C34.2567 12.4777 34.2567 11.3696 33.5732 10.6862L27.6067 4.71966C27.3138 4.42677 26.8389 4.42677 26.546 4.71966C26.2531 5.01255 26.2531 5.48743 26.546 5.78032Z" fill="white"/>
</svg>
