<svg xmlns="http://www.w3.org/2000/svg" width="27" height="22" viewBox="0 0 27 22" fill="none">
  <g clip-path="url(#clip0_2418_351)">
    <path d="M19.1164 0H7.59063C3.67655 0 0.492188 2.7236 0.492188 6.07117V15.9287C0.492188 19.2764 3.67655 21.9999 7.59063 21.9999H19.1164C23.0307 21.9999 26.2151 19.2763 26.2151 15.9287V6.07117C26.2153 2.7236 23.0307 0 19.1164 0ZM23.933 15.9287C23.933 18.2001 21.7723 20.0479 19.1165 20.0479H7.59063C4.93499 20.0481 2.77445 18.2001 2.77445 15.9287V6.07117C2.77445 3.7999 4.93499 1.95194 7.59063 1.95194H19.1164C21.7722 1.95194 23.9328 3.7999 23.9328 6.07117V15.9287H23.933Z" fill="#C5D1DF"/>
    <path d="M13.3547 5.33142C9.69989 5.33142 6.72656 7.8744 6.72656 11.0002C6.72656 14.1259 9.69989 16.6688 13.3547 16.6688C17.0095 16.6688 19.9829 14.1259 19.9829 11.0002C19.9829 7.8744 17.0095 5.33142 13.3547 5.33142ZM13.3547 14.7167C10.9585 14.7167 9.00883 13.0495 9.00883 11.0001C9.00883 8.95057 10.9583 7.28323 13.3547 7.28323C15.7511 7.28323 17.7006 8.95057 17.7006 11.0001C17.7006 13.0495 15.7509 14.7167 13.3547 14.7167Z" fill="#C5D1DF"/>
    <path d="M20.2596 3.67627C19.8199 3.67627 19.3879 3.82852 19.0774 4.09529C18.7653 4.36075 18.5859 4.73031 18.5859 5.10769C18.5859 5.48389 18.7655 5.85333 19.0774 6.12009C19.3878 6.38556 19.8199 6.53911 20.2596 6.53911C20.7008 6.53911 21.1314 6.38556 21.4433 6.12009C21.7552 5.85333 21.9333 5.48376 21.9333 5.10769C21.9333 4.73031 21.7552 4.36075 21.4433 4.09529C21.1329 3.82852 20.7008 3.67627 20.2596 3.67627Z" fill="#C5D1DF"/>
  </g>
  <defs>
    <clipPath id="clip0_2418_351">
      <rect width="25.7231" height="22" fill="white" transform="translate(0.492188)"/>
    </clipPath>
  </defs>
</svg>