<svg xmlns="http://www.w3.org/2000/svg" width="26" height="22" viewBox="0 0 26 22" fill="none">
  <g clip-path="url(#clip0_2418_348)">
    <path d="M26.0004 13.3778V21.5113H20.4871V13.9225C20.4871 12.0161 19.6897 10.7151 17.6941 10.7151C16.1707 10.7151 15.2641 11.5919 14.8652 12.4401C14.7198 12.7433 14.6824 13.1653 14.6824 13.5897V21.5113H9.16721C9.16721 21.5113 9.24149 8.65836 9.16721 7.3267H14.6818V9.33731C14.6706 9.35235 14.6561 9.36856 14.6456 9.38314H14.6818V9.33731C15.4145 8.37218 16.723 6.99346 19.6517 6.99346C23.2803 6.99341 26.0004 9.0208 26.0004 13.3778ZM3.39814 0.489014C1.51142 0.489014 0.277344 1.54744 0.277344 2.9393C0.277344 4.30083 1.47571 5.39138 3.32494 5.39138H3.36178C5.28504 5.39138 6.48114 4.30104 6.48114 2.9393C6.4449 1.54744 5.28504 0.489014 3.39814 0.489014ZM0.604895 21.5113H6.11794V7.3267H0.604895V21.5113Z" fill="#C5D1DF"/>
  </g>
  <defs>
    <clipPath id="clip0_2418_348">
      <rect width="25.7231" height="22" fill="white" transform="translate(0.277344)"/>
    </clipPath>
  </defs>
</svg>