<svg fill="none" height="12" viewBox="0 0 12 12" width="12" xmlns="http://www.w3.org/2000/svg"><path d="m.5 6.01196c0-.39058.123551-.70942.370652-.95653.247098-.25507.561958-.3826.944568-.3826h2.85761v-2.85761c0-.38261.12355-.69747.37065-.944568.25507-.247101.56993-.370652.94456-.370652.39058 0 .70942.123551.95653.370652.25507.247098.3826.561958.3826.944568v2.85761h2.85763c.3826 0 .6974.12753.9445.3826.2471.24711.3707.56595.3707.95653 0 .37463-.1236.68949-.3707.94456-.2471.2471-.5619.37065-.9445.37065h-2.85763v2.85763c0 .3826-.12753.6974-.3826.9445-.24711.2471-.56595.3707-.95653.3707-.37463 0-.68949-.1236-.94456-.3707-.2471-.2471-.37065-.5619-.37065-.9445v-2.85763h-2.85761c-.38261 0-.69747-.12355-.944568-.37065-.247101-.25507-.370652-.56993-.370652-.94456z" fill="#1d2d35"/></svg>