<svg xmlns="http://www.w3.org/2000/svg" width="52" height="9" fill="none" viewBox="0 0 52 9"><path fill="#FFE200" fill-rule="evenodd" d="M4.75 0L6.21781 2.96614L9.5 3.44357L7.125 5.74944L7.68562 9L4.75 7.46614L1.81438 9L2.375 5.74944L0 3.44357L3.28219 2.96614L4.75 0ZM15.25 0L16.7178 2.96614L20 3.44357L17.625 5.74944L18.1856 9L15.25 7.46614L12.3144 9L12.875 5.74944L10.5 3.44357L13.7822 2.96614L15.25 0ZM27.2178 2.96614L25.75 0L24.2822 2.96614L21 3.44357L23.375 5.74944L22.8144 9L25.75 7.46614L28.6856 9L28.125 5.74944L30.5 3.44357L27.2178 2.96614ZM36.25 0L37.7178 2.96614L41 3.44357L38.625 5.74944L39.1856 9L36.25 7.46614L33.3144 9L33.875 5.74944L31.5 3.44357L34.7822 2.96614L36.25 0ZM48.2178 2.96614L46.75 0L45.2822 2.96614L42 3.44357L44.375 5.74944L43.8144 9L46.75 7.46614L49.6856 9L49.125 5.74944L51.5 3.44357L48.2178 2.96614Z" clip-rule="evenodd"/></svg>