<svg xmlns="http://www.w3.org/2000/svg" width="26" height="22" viewBox="0 0 26 22" fill="none">
    <g clip-path="url(#clip0_2418_341)">
        <path d="M25.891 4.17928C24.9442 4.53807 23.9284 4.7814 22.8611 4.89003C23.9509 4.33187 24.7851 3.44655 25.1805 2.39487C24.1582 2.91176 23.0298 3.28709 21.8275 3.49055C20.8647 2.6121 19.4952 2.06494 17.9762 2.06494C15.062 2.06494 12.6991 4.08581 12.6991 6.57684C12.6991 6.93014 12.7457 7.2752 12.8357 7.60516C8.4508 7.4168 4.56254 5.62002 1.96018 2.88976C1.50527 3.55515 1.24649 4.33047 1.24649 5.1581C1.24649 6.72394 2.17878 8.10555 3.5933 8.91387C2.72851 8.88914 1.91516 8.68568 1.20311 8.34748V8.40385C1.20311 10.5897 3.02268 12.414 5.43536 12.8292C4.99331 12.9309 4.52719 12.9873 4.04497 12.9873C3.70422 12.9873 3.37469 12.9584 3.0516 12.9034C3.72347 14.6974 5.67165 16.002 7.97988 16.0378C6.17477 17.2476 3.8987 17.9666 1.42655 17.9666C1.00061 17.9666 0.581051 17.9446 0.167969 17.9047C2.50351 19.1874 5.27627 19.9352 8.25636 19.9352C17.9634 19.9352 23.2694 13.0588 23.2694 7.09514L23.2517 6.51088C24.2884 5.87845 25.1853 5.08386 25.891 4.17928Z" fill="#C5D1DF" />
    </g>
    <defs>
        <clipPath id="clip0_2418_341">
            <rect width="25.7231" height="22" fill="white" transform="translate(0.167969)" />
        </clipPath>
    </defs>
</svg>