<svg xmlns="http://www.w3.org/2000/svg" width="50" height="42" viewBox="0 0 50 42" fill="none">
    <path d="M35.1119 11.55H13.9956C12.5629 11.55 11.189 12.0368 10.1759 12.9032C9.16287 13.7696 8.59375 14.9447 8.59375 16.17V25.8301C8.59375 27.0554 9.16287 28.2305 10.1759 29.0969C11.189 29.9633 12.5629 30.4501 13.9956 30.4501H35.1119C36.5446 30.4501 37.9185 29.9633 38.9316 29.0969C39.9446 28.2305 40.5137 27.0554 40.5137 25.8301V16.17C40.5137 14.9447 39.9446 13.7696 38.9316 12.9032C37.9185 12.0368 36.5446 11.55 35.1119 11.55ZM25.9042 23.1L21.1162 25.2001V16.8L25.9042 18.9L30.6922 21L25.9042 23.1Z" fill="#C5D1DF" />
</svg>