<svg xmlns="http://www.w3.org/2000/svg" width="50" height="50" viewBox="0 0 50 50" fill="none">
  <g clip-path="url(#clip0_2301_3853)">
    <path d="M17.5021 33.333C19.343 33.333 20.8353 31.8407 20.8353 29.9998C20.8353 28.159 19.343 26.6666 17.5021 26.6666H9.16911C7.32826 26.6666 5.83594 28.159 5.83594 29.9998C5.83594 31.8407 7.32826 33.333 9.16911 33.333H17.5021ZM7.50248 29.9997C7.50248 29.0792 8.24864 28.3331 9.16911 28.3331H17.5021C18.4226 28.3331 19.1687 29.0792 19.1687 29.9997C19.1687 30.9202 18.4226 31.6663 17.5021 31.6663H9.16911C8.24864 31.6663 7.50248 30.9202 7.50248 29.9997Z" fill="white"/>
    <path d="M8.33327 23.3334H18.3329C18.7931 23.3334 19.1662 22.9603 19.1662 22.5001C19.1662 22.0399 18.793 21.6669 18.3329 21.6669H8.33327C7.87303 21.6669 7.5 22.04 7.5 22.5001C7.4999 22.9603 7.87303 23.3334 8.33327 23.3334Z" fill="white"/>
    <path d="M8.33327 19.1668H18.3329C18.7931 19.1668 19.1662 18.7937 19.1662 18.3335C19.1662 17.8733 18.793 17.5002 18.3329 17.5002H8.33327C7.87303 17.5002 7.5 17.8734 7.5 18.3335C7.4999 18.7937 7.87303 19.1668 8.33327 19.1668Z" fill="white"/>
    <path d="M10.8334 14.167C11.2936 14.167 11.6666 13.7939 11.6666 13.3337V10.8338H14.9998V13.3337C14.9998 13.794 15.3729 14.167 15.8331 14.167C16.2932 14.167 16.6664 13.7939 16.6664 13.3337V7.50054C16.6664 5.65969 15.174 4.16736 13.3332 4.16736C11.4923 4.16736 10 5.65969 10 7.50054V13.3336C10 13.794 10.3731 14.167 10.8334 14.167ZM13.3333 5.834C14.2537 5.834 14.9999 6.58016 14.9999 7.50063V9.16727H11.6667V7.50054C11.6666 6.58016 12.4128 5.834 13.3333 5.834Z" fill="white"/>
    <path d="M32.5011 24.1666H40.8341C42.675 24.1666 44.1673 22.6743 44.1673 20.8334C44.1673 18.9926 42.675 17.5002 40.8341 17.5002H32.5011C30.6603 17.5002 29.168 18.9926 29.168 20.8334C29.168 22.6743 30.6603 24.1666 32.5011 24.1666ZM32.5011 19.1668H40.8341C41.7546 19.1668 42.5008 19.9129 42.5008 20.8334C42.5008 21.7539 41.7546 22.5001 40.8341 22.5001H32.5011C31.5807 22.5001 30.8345 21.7539 30.8345 20.8334C30.8346 19.9129 31.5808 19.1668 32.5011 19.1668Z" fill="white"/>
    <path d="M41.6649 30.8331H31.6653C31.2051 30.8331 30.832 31.2062 30.832 31.6664C30.832 32.1266 31.2051 32.4997 31.6653 32.4997H41.6649C42.1252 32.4997 42.4982 32.1266 42.4982 31.6664C42.4982 31.2062 42.1252 30.8331 41.6649 30.8331Z" fill="white"/>
    <path d="M41.6649 26.6665H31.6653C31.2051 26.6665 30.832 27.0396 30.832 27.4998C30.832 27.96 31.2051 28.333 31.6653 28.333H41.6649C42.1252 28.333 42.4982 27.9599 42.4982 27.4998C42.4982 27.0396 42.1252 26.6665 41.6649 26.6665Z" fill="white"/>
    <path d="M34.9987 14.167H37.0819C38.3849 14.1695 39.5306 13.3057 39.8868 12.0523C40.2428 10.7989 39.7223 9.46169 38.6127 8.7788C39.2545 7.8928 39.3443 6.72146 38.8452 5.74786C38.3461 4.77426 37.3426 4.16345 36.2486 4.16725H34.9987C34.0782 4.16725 33.332 4.91342 33.332 5.83389V12.5003C33.3321 13.4208 34.0783 14.167 34.9987 14.167ZM37.082 12.5003H34.9988V10.0004H37.082C37.7723 10.0004 38.3319 10.5601 38.3319 11.2504C38.3319 11.9408 37.7723 12.5003 37.082 12.5003ZM34.9987 5.83399H36.2486C36.9389 5.83399 37.4986 6.39364 37.4986 7.08394C37.4986 7.77425 36.9389 8.3339 36.2486 8.3339H34.9987V5.83399Z" fill="white"/>
    <path d="M47.4991 0.000854492H2.50082C1.12021 0.000854492 0.000912493 1.12015 0.000912493 2.50076V39.0161C-0.0364885 40.4367 1.08046 41.6207 2.50082 41.666H16.9852L15.3186 44.9992H12.5004C11.1197 44.9992 10.0004 46.1185 10.0004 47.4991C10.0004 48.8797 11.1197 49.999 12.5004 49.999H37.4994C38.88 49.999 39.9993 48.8798 39.9993 47.4991C39.9993 46.1185 38.88 44.9992 37.4994 44.9992H34.6812L33.0145 41.666H47.499C48.9193 41.6207 50.0363 40.4367 49.9989 39.0161V2.50076C49.9991 1.12015 48.8799 0.000854492 47.4991 0.000854492ZM1.66755 2.50076C1.66755 2.04052 2.04068 1.66749 2.50082 1.66749H24.1667V34.9996H1.66755V2.50076ZM34.1663 46.6658H37.4995C37.9598 46.6658 38.3328 47.0389 38.3328 47.4991C38.3328 47.9593 37.9598 48.3324 37.4995 48.3324H12.5004C12.0402 48.3324 11.6672 47.9593 11.6672 47.4991C11.6672 47.0389 12.0403 46.6658 12.5004 46.6658H34.1663ZM17.182 44.9992L18.8486 41.666H31.1515L32.8181 44.9992H17.182ZM48.3325 39.0161C48.3638 39.5144 47.9959 39.9485 47.4992 39.9994H2.50092C2.00426 39.9485 1.6364 39.5144 1.66765 39.0161V36.6662H48.3326V39.0161H48.3325ZM48.3325 34.9996H25.8333V1.66749H47.4992C47.9595 1.66749 48.3325 2.04062 48.3325 2.50076V34.9996Z" fill="white"/>
  </g>
  <defs>
    <clipPath id="clip0_2301_3853">
      <rect width="50" height="50" fill="white"/>
    </clipPath>
  </defs>
</svg>