<svg xmlns="http://www.w3.org/2000/svg" width="50" height="50" viewBox="0 0 50 50" fill="none">
  <g clip-path="url(#clip0_2301_3790)">
    <path d="M48.9582 3.32638L30.6756 16.5437L27.6756 18.7176C26.0864 19.8917 23.9171 19.8917 22.3278 18.7176L19.3278 16.5437L1.02344 3.34809C2.04154 1.92431 3.68614 1.08168 5.43651 1.08718H44.5669C46.3045 1.08871 47.9365 1.92095 48.9582 3.32638Z" fill="#F1F2F2"/>
    <path d="M1.02182 3.3479L19.3262 16.5435L1.58707 34.2826C0.568457 33.2615 -0.00250009 31.8772 4.74646e-05 30.4348V6.52185C-0.00474193 5.38217 0.353036 4.27062 1.02182 3.3479Z" fill="white"/>
    <path d="M50.0018 6.52182V30.4349C50.0044 31.8773 49.4335 33.2615 48.4149 34.2827L30.6758 16.5436L48.9583 3.32617C49.6371 4.25328 50.0025 5.37267 50.0018 6.52182Z" fill="white"/>
    <path d="M32.6082 40.2174C31.1647 40.2174 30.4343 39.1304 30.4343 36.9565C30.4699 33.9191 28.0364 31.4281 24.999 31.3926C21.9616 31.357 19.4706 33.7904 19.4351 36.8278C19.3995 39.8652 21.8329 42.3562 24.8703 42.3918C26.4982 42.4109 28.0509 41.7077 29.1104 40.4718C29.8322 41.7086 31.1772 42.4467 32.6082 42.3913C36.956 42.3913 36.956 38.3 36.956 36.9565C36.9561 30.3532 31.6031 25 24.9998 24.9998C18.3964 24.9996 13.0432 30.3527 13.043 36.9561C13.0429 43.5595 18.3959 48.9127 24.9992 48.9129C28.1017 48.913 31.0827 47.7071 33.3125 45.5502C33.7442 45.1299 33.7533 44.4394 33.3332 44.0078C32.913 43.5761 32.2225 43.5669 31.7908 43.9871C27.9021 47.7378 21.7091 47.6259 17.9584 43.7372C14.2077 39.8485 14.3196 33.6555 18.2083 29.9048C22.097 26.1541 28.29 26.266 32.0407 30.1547C33.802 31.9808 34.7849 34.4197 34.7822 36.9566C34.7822 39.3935 34.2343 40.2174 32.6082 40.2174ZM24.9995 40.2174C23.1986 40.2174 21.7387 38.7575 21.7387 36.9565C21.7387 35.1556 23.1986 33.6957 24.9995 33.6957C26.8005 33.6957 28.2604 35.1556 28.2604 36.9565C28.2604 38.7575 26.8005 40.2174 24.9995 40.2174Z" fill="white"/>
    <path d="M30.6729 16.5437L27.6729 18.7176C26.0836 19.8917 23.9143 19.8917 22.3251 18.7176L19.3251 16.5437L1.58594 34.2828C2.6071 35.3014 3.99134 35.8724 5.43376 35.8697H10.9228C11.5109 28.0963 18.2891 22.2714 26.0626 22.8595C33.0184 23.3857 38.5466 28.914 39.0729 35.8697H44.5642C46.0066 35.8723 47.3908 35.3014 48.412 34.2828L30.6729 16.5437Z" fill="#C5D1DF"/>
  </g>
  <defs>
    <clipPath id="clip0_2301_3790">
      <rect width="50" height="50" fill="white"/>
    </clipPath>
  </defs>
</svg>