<svg xmlns="http://www.w3.org/2000/svg" width="50" height="50" viewBox="0 0 50 50" fill="none">
  <g clip-path="url(#clip0_2301_3826)">
    <path d="M21.9759 28.3734C22.0259 28.4344 22.0839 28.4886 22.1476 28.5363C24.6256 30.8487 27.9486 32.2659 31.5974 32.2659C35.1992 32.2659 38.4844 30.885 40.9521 28.6248C41.0883 28.5466 41.2032 28.4367 41.2875 28.3062C43.8605 25.7881 45.4604 22.279 45.4604 18.4033C45.4604 10.759 39.2413 4.54028 31.5974 4.54028C23.9531 4.54028 17.7344 10.759 17.7344 18.4033C17.7344 22.3137 19.3625 25.8507 21.9759 28.3734ZM23.7734 27.3751C24.2716 24.8112 26.5147 22.9332 29.1777 22.9332H30.6208V26.6232C30.6208 27.1622 31.058 27.5997 31.5974 27.5997C32.1364 27.5997 32.5739 27.1622 32.5739 26.6232V22.9332H34.0166C36.6831 22.9332 38.9235 24.8101 39.4213 27.3747C37.327 29.2034 34.5892 30.3131 31.5974 30.3131C28.6051 30.3128 25.8677 29.2034 23.7734 27.3751ZM28.6501 17.3088H29.592C30.8775 17.3088 32.1017 16.8457 33.0561 16.0168L34.5442 16.8911V18.0329C34.5442 19.6579 33.222 20.9801 31.5974 20.9801C29.9723 20.9801 28.6501 19.6579 28.6501 18.0329V17.3088ZM34.5442 14.626L33.3907 13.9485C32.9794 13.7066 32.4541 13.7974 32.1474 14.1632C31.5123 14.9212 30.5811 15.3557 29.592 15.3557H28.6501V14.4215C28.6501 12.7964 29.9723 11.4746 31.5974 11.4746C33.222 11.4746 34.5442 12.7964 34.5442 14.4215V14.626ZM31.5974 6.49341C38.1644 6.49341 43.5072 11.8359 43.5072 18.4033C43.5072 21.167 42.5604 23.7141 40.9747 25.737C40.0538 23.3479 37.9553 21.5847 35.4079 21.1087C36.0888 20.2668 36.4973 19.1967 36.4973 18.0329V14.4215C36.4973 11.7195 34.2993 9.52113 31.5974 9.52113C28.8954 9.52113 26.697 11.7195 26.697 14.4215V18.0329C26.697 19.1971 27.1059 20.2671 27.7865 21.1087C25.2417 21.5859 23.1417 23.3498 22.2205 25.7378C20.6343 23.7145 19.6875 21.1674 19.6875 18.4033C19.6875 11.8359 25.03 6.49341 31.5974 6.49341Z" fill="white"/>
    <path d="M31.451 37.0968C36.4055 37.0968 41.0636 35.1673 44.567 31.6639C48.0704 28.1605 49.9999 23.5024 49.9999 18.5479C49.9999 13.5933 48.0704 8.93522 44.567 5.43181C41.5755 2.44071 37.6159 0.54824 33.4174 0.103066C29.28 -0.335624 25.0751 0.637122 21.5751 2.84239C21.1189 3.12964 20.9819 3.73274 21.2692 4.18898C21.5568 4.64522 22.1599 4.78255 22.6161 4.49492C29.2091 0.341102 37.6674 1.29439 43.1857 6.81311C46.3203 9.94764 48.0468 14.1152 48.0468 18.5479C48.0468 22.9809 46.3203 27.1485 43.1857 30.283C40.0516 33.4175 35.884 35.1437 31.451 35.1437C27.0179 35.1437 22.8504 33.4175 19.7162 30.283C14.1975 24.7647 13.2442 16.306 17.3977 9.71341C17.6853 9.25679 17.5483 8.65407 17.0921 8.36645C16.6355 8.07882 16.0328 8.21577 15.7451 8.672C13.5402 12.172 12.5675 16.3777 13.0062 20.5143C13.2732 23.0351 14.0629 25.4692 15.298 27.6596L11.3193 31.6383L1.45836 41.5001C0.518035 42.4404 0 43.6905 0 45.0203C0 46.3501 0.518035 47.6005 1.45836 48.5409C2.39868 49.4812 3.64875 49.9988 4.97893 49.9988C6.30873 49.9988 7.55881 49.4812 8.49913 48.5409L18.3605 38.6795C18.3605 38.6795 18.3605 38.6791 18.3609 38.6791L22.3308 34.7092C25.0823 36.2675 28.2028 37.0968 31.451 37.0968ZM7.11821 47.1595C6.54639 47.731 5.78688 48.0457 4.97855 48.0457C4.1706 48.0457 3.41071 47.731 2.83927 47.1595C1.65977 45.98 1.65977 44.0605 2.83927 42.881L12.0102 33.7101L16.2887 37.989L7.11821 47.1595ZM17.67 36.6077L13.3911 32.3292L16.373 29.3472C16.9605 30.1685 17.6155 30.9445 18.3349 31.6639C19.059 32.3879 19.833 33.0433 20.6478 33.63L17.67 36.6077Z" fill="white"/>
    <path d="M19.0274 7.09922C19.2773 7.09922 19.5271 7.00423 19.7179 6.8135C20.0993 6.43203 20.0993 5.81366 19.7179 5.43219V5.43181C19.3364 5.05072 18.718 5.05072 18.3365 5.43181C17.9555 5.81328 17.9555 6.43203 18.3369 6.81311C18.5277 7.00423 18.7775 7.09922 19.0274 7.09922Z" fill="white"/>
  </g>
  <defs>
    <clipPath id="clip0_2301_3826">
      <rect width="50" height="50" fill="white"/>
    </clipPath>
  </defs>
</svg>