<svg xmlns="http://www.w3.org/2000/svg" width="50" height="50" viewBox="0 0 50 50" fill="none">
  <path d="M50 14.8325C50 9.56162 45.7118 5.27344 40.4409 5.27344C35.2315 5.27344 30.9827 9.46221 30.8842 14.6484H23.7035C23.1643 14.6484 22.727 15.0856 22.727 15.625C22.727 16.1644 23.1643 16.6016 23.7035 16.6016H31.0466C31.5057 19.0449 32.8973 21.163 34.8365 22.5713L23.2923 34.1157C22.9557 34.4524 22.5079 34.6378 22.0318 34.6378C21.5557 34.6378 21.1079 34.4524 20.7713 34.1156L3.45088 16.7954C3.74473 16.6707 4.06768 16.6016 4.40645 16.6016H14.9146C15.4538 16.6016 15.8911 16.1644 15.8911 15.625C15.8911 15.0856 15.4538 14.6484 14.9146 14.6484H4.40645C1.97666 14.6484 0 16.6252 0 19.0549V40.3201C0 42.7498 1.97666 44.7266 4.40645 44.7266H39.7342C42.164 44.7266 44.1406 42.7498 44.1406 40.3201V23.6464C47.5796 22.1974 50 18.7924 50 14.8325ZM2.125 41.2205C2.01455 40.9415 1.95312 40.638 1.95312 40.3201V19.0549C1.95312 18.7581 2.00615 18.4734 2.10312 18.2099L13.6193 29.7261L2.125 41.2205ZM4.40645 42.7734C4.08867 42.7734 3.78506 42.712 3.50605 42.6016L15.0004 31.1072L19.39 35.4969C20.1184 36.2252 21.075 36.5894 22.0316 36.5894C22.9884 36.5894 23.945 36.2252 24.6733 35.4969L29.1016 31.0687L40.6346 42.6016C40.3556 42.712 40.0521 42.7734 39.7342 42.7734H4.40645ZM42.1875 40.3201C42.1875 40.6379 42.1261 40.9415 42.0156 41.2204L30.4827 29.6875L36.5897 23.5805C37.7686 24.1015 39.0715 24.3916 40.441 24.3916C41.0374 24.3916 41.6211 24.3361 42.1876 24.2312V40.3201H42.1875ZM40.4409 22.4385C36.247 22.4385 32.835 19.0265 32.835 14.8325C32.835 10.6386 36.247 7.22656 40.4409 7.22656C44.6349 7.22656 48.0469 10.6386 48.0469 14.8325C48.0469 19.0265 44.635 22.4385 40.4409 22.4385Z" fill="white"/>
  <path d="M40.9277 10.2427H39.2578C38.7186 10.2427 38.2812 10.6799 38.2812 11.2192C38.2812 11.7586 38.7186 12.1958 39.2578 12.1958H39.9512V19.0317C39.9512 19.5711 40.3885 20.0083 40.9277 20.0083C41.467 20.0083 41.9043 19.5711 41.9043 19.0317V11.2192C41.9043 10.6799 41.4671 10.2427 40.9277 10.2427Z" fill="white"/>
  <path d="M19.3086 16.6016C19.8479 16.6016 20.2852 16.1643 20.2852 15.625C20.2852 15.0857 19.8479 14.6484 19.3086 14.6484C18.7693 14.6484 18.332 15.0857 18.332 15.625C18.332 16.1643 18.7693 16.6016 19.3086 16.6016Z" fill="white"/>
</svg>