<svg xmlns="http://www.w3.org/2000/svg" width="50" height="50" viewBox="0 0 50 50" fill="none">
  <g clip-path="url(#clip0_2301_3778)">
    <path d="M20.6351 33.2427L20.8712 33.0066C21.2893 33.2203 21.7241 33.4005 22.1721 33.546V33.8791C22.1721 34.7057 22.8445 35.3782 23.6712 35.3782H26.2288C27.0554 35.3782 27.7279 34.7057 27.7279 33.8791V33.5459C28.1743 33.4006 28.609 33.2203 29.0284 33.0062L29.2649 33.2427C29.8461 33.8239 30.795 33.8251 31.383 33.2427L33.1933 31.4324C33.7743 30.8512 33.7754 29.9022 33.1933 29.3144L32.957 29.0783C33.1706 28.6603 33.351 28.2253 33.4965 27.7773H33.8295C34.6547 27.7773 35.3259 27.1048 35.3259 26.2782V23.7206C35.3259 22.8939 34.6546 22.2214 33.8295 22.2214H33.4963C33.3511 21.775 33.1706 21.3403 32.9566 20.9209L33.1933 20.6842C33.7743 20.1031 33.7754 19.1541 33.1928 18.566L31.383 16.7588C31.1 16.4758 30.7237 16.3202 30.323 16.3202C30.3218 16.3202 30.3206 16.3202 30.3194 16.3202C29.9188 16.321 29.5435 16.4778 29.2661 16.7578L29.0296 16.9932C28.6098 16.7789 28.1747 16.5983 27.7279 16.4529V16.1197C27.7279 15.2946 27.0555 14.6233 26.2288 14.6233H23.6712C22.8446 14.6233 22.1721 15.2946 22.1721 16.1197V16.4527C21.7237 16.5983 21.2884 16.7789 20.87 16.9927L20.6374 16.7612C20.3555 16.4767 19.9785 16.3201 19.576 16.3201C19.1734 16.3201 18.7965 16.4767 18.5175 16.7584L16.7043 18.5687C16.1247 19.154 16.1258 20.103 16.7067 20.6842L16.9434 20.9208C16.7294 21.3403 16.5489 21.775 16.4037 22.2213H16.0705C15.2454 22.2213 14.5742 22.8938 14.5742 23.7205V26.2781C14.5742 27.1047 15.2455 27.7772 16.0705 27.7772H16.4035C16.549 28.2252 16.7294 28.6601 16.943 29.0782L16.7043 29.3168C16.1247 29.9021 16.1258 30.8511 16.7067 31.4324L18.517 33.2426C19.0981 33.8239 20.0473 33.8251 20.6351 33.2427ZM17.7426 30.3501L18.3682 29.7246C18.6052 29.4875 18.651 29.1198 18.4795 28.8319C18.1152 28.2206 17.8405 27.5583 17.6631 26.8637C17.5803 26.5394 17.2882 26.3126 16.9535 26.3126H16.0706C16.0557 26.3126 16.0391 26.2984 16.0391 26.2782V23.7206C16.0391 23.7021 16.0564 23.6862 16.0706 23.6862H16.9535C17.2883 23.6862 17.5804 23.4593 17.6631 23.135C17.8395 22.4449 18.1143 21.7823 18.4802 21.1657C18.651 20.8778 18.6049 20.5108 18.3683 20.2741L17.7427 19.6486C17.7325 19.6384 17.7319 19.6127 17.7422 19.6023L19.5553 17.792C19.5648 17.7823 19.5839 17.7789 19.6005 17.7956L20.2261 18.4184C20.4634 18.6545 20.8304 18.6999 21.1177 18.5286C21.7291 18.1642 22.3913 17.8895 23.0858 17.7122C23.4101 17.6293 23.6369 17.3373 23.6369 17.0026V16.1197C23.6369 16.1041 23.6543 16.088 23.6713 16.088H26.2289C26.2459 16.088 26.2633 16.1041 26.2633 16.1197V17.0026C26.2633 17.3373 26.4901 17.6293 26.8144 17.7122C27.5044 17.8884 28.167 18.1633 28.7837 18.5292C29.071 18.6998 29.4373 18.6541 29.6742 18.4184L30.3033 17.792C30.3054 17.7899 30.3104 17.7847 30.323 17.7847H30.3231C30.3377 17.7847 30.3448 17.7917 30.3479 17.7948L32.1552 19.5994C32.1685 19.6127 32.1678 19.6383 32.1576 19.6484L31.532 20.274C31.2953 20.5107 31.2493 20.8777 31.4201 21.1656C31.786 21.7822 32.0608 22.4447 32.2372 23.1349C32.32 23.4592 32.6121 23.6861 32.9468 23.6861H33.8297C33.8439 23.6861 33.8613 23.702 33.8613 23.7205V26.2781C33.8613 26.2984 33.8446 26.3125 33.8297 26.3125H32.9468C32.612 26.3125 32.3199 26.5393 32.2372 26.8636C32.0598 27.5583 31.7851 28.2205 31.4208 28.8318C31.2492 29.1198 31.2951 29.4875 31.5321 29.7245L32.1552 30.3475C32.1685 30.3609 32.1678 30.3865 32.1576 30.3965L30.3499 32.2043C30.3363 32.2179 30.3111 32.2169 30.301 32.2068L29.6754 31.5812C29.4386 31.3445 29.0716 31.2984 28.7838 31.4693C28.1671 31.8352 27.5045 32.1101 26.8145 32.2864C26.4902 32.3692 26.2634 32.6613 26.2634 32.9959V33.879C26.2634 33.8954 26.2454 33.9133 26.229 33.9133H23.6714C23.655 33.9133 23.637 33.8954 23.637 33.879V32.9959C23.637 32.6613 23.4102 32.3691 23.0858 32.2864C22.3914 32.109 21.7292 31.8343 21.1178 31.47C21.0014 31.4005 20.8719 31.3668 20.7432 31.3668C20.5537 31.3668 20.3662 31.4401 20.225 31.5813L19.602 32.2044C19.5883 32.218 19.5632 32.217 19.553 32.2069L17.7426 30.3968C17.7325 30.3867 17.7318 30.3611 17.7426 30.3501Z" fill="white"/>
    <path d="M20.9238 26.1073L23.3624 28.2885C23.4971 28.409 23.6711 28.475 23.8507 28.475C23.8677 28.475 23.8847 28.4744 23.9017 28.4733C24.0989 28.4595 24.2823 28.3664 24.4101 28.2154L29.0436 22.732C29.3047 22.423 29.2658 21.961 28.9568 21.6998C28.648 21.4388 28.1857 21.4776 27.9247 21.7866L23.7773 26.6946L21.9003 25.0156C21.5988 24.7458 21.1357 24.7718 20.8662 25.0732C20.5966 25.3746 20.6223 25.8376 20.9238 26.1073Z" fill="white"/>
    <path d="M15.0791 38.1564C10.9095 35.0098 8.51904 30.2163 8.51904 24.9996C8.51904 16.9865 14.3052 10.1546 22.109 8.77729V10.5672C22.109 10.5717 22.109 10.5763 22.1091 10.5809C22.1231 11.3341 22.4902 11.9733 23.0911 12.2907C23.6777 12.6006 24.3771 12.5567 24.9618 12.1735C24.9726 12.1663 24.9832 12.159 24.9936 12.1514L30.923 7.79867C31.5236 7.42524 31.8672 6.86127 31.8672 6.24643C31.8671 5.63139 31.5233 5.06733 30.9225 4.69389L24.9933 0.343986C24.9829 0.336369 24.9724 0.329143 24.9616 0.322014C24.3772 -0.0612871 23.6777 -0.105037 23.0909 0.204924C22.49 0.522307 22.123 1.16147 22.109 1.91469C22.1089 1.91918 22.1089 1.92377 22.1089 1.92826V3.30238C17.6357 3.89037 13.5235 5.81322 10.1806 8.88764C9.88281 9.16147 9.86348 9.62475 10.1373 9.9225C10.4111 10.2202 10.8742 10.2396 11.1722 9.96576C14.4439 6.95688 18.5046 5.13002 22.9151 4.68295C23.2892 4.64506 23.5737 4.33012 23.5737 3.95434V1.93598C23.579 1.72367 23.6522 1.56508 23.7751 1.50004C23.8814 1.44389 24.0157 1.45815 24.1457 1.53871L30.0812 5.89311C30.099 5.90619 30.1174 5.9184 30.1363 5.92983C30.3005 6.02865 30.4023 6.14985 30.4023 6.24633C30.4023 6.34272 30.3003 6.46401 30.1363 6.56283C30.1171 6.57446 30.0983 6.58686 30.0804 6.60014L24.1456 10.9568C24.0155 11.0373 23.8813 11.0515 23.7752 10.9954C23.6521 10.9304 23.5789 10.7717 23.5737 10.5594V7.92651C23.5737 7.71645 23.4835 7.51654 23.3261 7.37748C23.1687 7.23852 22.9594 7.17348 22.7506 7.19985C13.8022 8.31762 7.0543 15.9699 7.0543 24.9995C7.0543 27.8677 7.71123 30.6084 9.00693 33.1455C10.2421 35.5641 12.0454 37.7077 14.2221 39.3445C14.2386 39.3569 14.2556 39.3686 14.2729 39.3794C14.9215 39.7865 15.2731 40.3385 15.2374 40.8938C15.2116 41.294 14.9789 41.6426 14.63 41.8036C14.1322 42.0331 13.4555 41.872 12.773 41.3613C7.78301 37.6289 4.79932 31.9266 4.58584 25.7149V24.2837C4.73311 19.9704 6.21016 15.8893 8.85771 12.4805C9.10586 12.1611 9.04805 11.701 8.72861 11.4529C8.40928 11.2048 7.94902 11.2624 7.70098 11.5821C4.86045 15.2393 3.27686 19.6187 3.12148 24.2468C3.12119 24.2549 3.12109 24.2631 3.12109 24.2713V25.7273C3.12109 25.7355 3.12119 25.7438 3.12148 25.752C3.34658 32.4151 6.54463 38.532 11.8957 42.5342C12.6344 43.0868 13.4133 43.3709 14.1443 43.3709C14.5282 43.3709 14.8989 43.2926 15.2436 43.1335C16.0813 42.7472 16.6391 41.9248 16.6992 40.9875C16.7697 39.8882 16.1797 38.8579 15.0791 38.1564Z" fill="white"/>
    <path d="M44.5797 15.2284C43.1277 12.3236 41.0028 9.73111 38.4338 7.73003C37.4082 6.87564 36.2402 6.60855 35.2278 6.99761C34.3479 7.33579 33.7194 8.12798 33.5878 9.06499C33.4438 10.0908 33.904 11.0885 34.8531 11.8042C39.0553 14.9468 41.4653 19.7563 41.4653 24.9995C41.4653 33.0151 35.6791 39.8471 27.8753 41.2221V39.4318C27.8753 39.4273 27.8753 39.4227 27.8752 39.4182C27.8612 38.6673 27.4949 38.0293 26.8953 37.7117C26.309 37.401 25.6096 37.4432 25.0241 37.8246C25.0128 37.832 25.0018 37.8397 24.9907 37.8476L19.0614 42.2003C18.4608 42.5738 18.1172 43.1377 18.1172 43.7527C18.1173 44.3675 18.4608 44.9314 19.0613 45.3048L24.9907 49.6576C25.0016 49.6656 25.0128 49.6733 25.0241 49.6807C25.3495 49.8928 25.7102 50 26.0672 50C26.3522 50 26.635 49.9316 26.8953 49.7936C27.4949 49.4758 27.8613 48.8379 27.8752 48.0871C27.8753 48.0826 27.8753 48.078 27.8753 48.0735V46.6966C32.1864 46.1302 36.1813 44.3131 39.4656 41.4177C39.7689 41.1502 39.7981 40.6875 39.5307 40.384C39.2633 40.0806 38.8005 40.0514 38.497 40.319C35.2771 43.1577 31.3254 44.8856 27.0692 45.3159C26.6952 45.3537 26.4105 45.6686 26.4105 46.0445V48.0655C26.4054 48.2763 26.3322 48.4343 26.2095 48.4994C26.1027 48.5559 25.968 48.5423 25.8379 48.4624L19.9039 44.1063C19.8858 44.093 19.8672 44.0806 19.848 44.0691C19.6839 43.9703 19.582 43.8491 19.582 43.7526C19.582 43.6562 19.6841 43.5349 19.848 43.4361C19.8673 43.4245 19.886 43.4121 19.904 43.3988L25.8378 39.0428C25.9681 38.9628 26.1028 38.9494 26.2095 39.0058C26.3323 39.0709 26.4055 39.229 26.4105 39.4397V42.0724C26.4105 42.2825 26.5007 42.4823 26.6581 42.6213C26.8155 42.7603 27.0245 42.8251 27.2335 42.7992C36.182 41.6842 42.93 34.032 42.93 24.9994C42.93 22.1246 42.2703 19.3781 40.969 16.8364C39.7278 14.4117 37.9162 12.2659 35.7326 10.6328C35.2159 10.2432 34.9692 9.75874 35.0381 9.2687C35.0958 8.85845 35.3697 8.51206 35.7531 8.3647C36.2648 8.16812 36.8865 8.34439 37.5035 8.86148C37.5103 8.86714 37.5172 8.87271 37.5241 8.87808C42.5372 12.7782 45.4124 18.6542 45.4124 24.9994C45.4124 29.7202 43.7651 34.3226 40.774 37.9588C40.517 38.2712 40.5619 38.7328 40.8743 38.9897C41.1867 39.2466 41.6482 39.2018 41.9052 38.8894C45.1114 34.9917 46.8771 30.0587 46.8771 24.9994C46.8772 21.5657 46.1042 18.2782 44.5797 15.2284Z" fill="white"/>
  </g>
  <defs>
    <clipPath id="clip0_2301_3778">
      <rect width="50" height="50" fill="white"/>
    </clipPath>
  </defs>
</svg>