<svg xmlns="http://www.w3.org/2000/svg" width="50" height="50" viewBox="0 0 50 50" fill="none">
  <g clip-path="url(#clip0_2301_3830)">
    <path d="M40.6237 39.5771C41.207 39.5771 41.6654 40.0563 41.6654 40.6188C41.6654 41.2021 41.207 41.6605 40.6237 41.6605H39.582V39.5771H40.6237Z" fill="white"/>
    <path d="M10.418 39.5771H39.5846V41.6605H10.418V39.5771Z" fill="white"/>
    <path d="M41.6654 26.0354V27.4104V40.6187C41.6654 40.0562 41.207 39.5771 40.6237 39.5771H39.582V26.0354C39.582 25.4729 39.1029 24.9937 38.5404 24.9937H34.3737C33.7904 24.9937 33.332 24.5354 33.332 23.9521C33.332 23.3896 33.7904 22.9104 34.3737 22.9104H38.5404C40.2695 22.9104 41.6654 24.3271 41.6654 26.0354Z" fill="white"/>
    <path d="M38.5417 45.8271H30.1875C29.9375 45.3896 29.7083 44.9104 29.5417 44.4313C29.3958 44.0146 28.9792 43.7438 28.5625 43.7438H38.5417C39.1042 43.7438 39.5833 43.2854 39.5833 42.7021V41.6604H40.625C41.2083 41.6604 41.6667 41.2021 41.6667 40.6188V42.7021C41.6667 44.4313 40.2708 45.8271 38.5417 45.8271Z" fill="white"/>
    <path d="M29.1654 18.1396V26.0354C29.1654 26.6187 28.707 27.0771 28.1237 27.0771C27.5404 27.0771 27.082 26.6187 27.082 26.0354V18.1396L28.1237 17.0979L29.1654 18.1396Z" fill="white"/>
    <path d="M29.541 44.4313C29.7077 44.9104 29.9368 45.3896 30.1868 45.8271H27.8535C27.7493 45.5979 27.666 45.3688 27.5827 45.1396C27.3952 44.5979 27.666 44.0146 28.2077 43.8063C28.3327 43.7646 28.4368 43.7438 28.5618 43.7438C28.9785 43.7438 29.3952 44.0146 29.541 44.4313Z" fill="white"/>
    <path d="M29.1654 16.1396V18.1396L28.1237 17.0979L27.082 18.1396V16.1396C27.082 15.5771 27.5404 15.0979 28.1237 15.0979C28.707 15.0979 29.1654 15.5771 29.1654 16.1396Z" fill="white"/>
    <path d="M21.418 43.7438H28.5638C28.4388 43.7438 28.3346 43.7646 28.2096 43.8063C27.668 44.0146 27.3971 44.5979 27.5846 45.1396C27.668 45.3688 27.7513 45.5979 27.8555 45.8271H22.1263C22.2305 45.5979 22.3138 45.3479 22.3971 45.1188C22.5846 44.5771 22.293 43.9938 21.7513 43.8063C21.6471 43.7646 21.5221 43.7438 21.418 43.7438Z" fill="white"/>
    <path d="M24.2695 18.0146L27.3945 14.8896C27.7904 14.473 28.457 14.473 28.8529 14.8896L31.9779 18.0146C32.3945 18.4105 32.3945 19.0771 31.9779 19.4938C31.7904 19.6813 31.5195 19.7855 31.2487 19.7855C30.9779 19.7855 30.707 19.6813 30.5195 19.4938L29.1654 18.1396V16.1396C29.1654 15.5771 28.707 15.098 28.1237 15.098C27.5404 15.098 27.082 15.5771 27.082 16.1396V18.1396L25.7279 19.4938C25.332 19.8897 24.6654 19.8897 24.2695 19.4938C23.8529 19.0771 23.8529 18.4105 24.2695 18.0146Z" fill="white"/>
    <path d="M22.9154 29.7854V31.7646C22.9154 32.3479 22.457 32.8062 21.8737 32.8062C21.2904 32.8062 20.832 32.3479 20.832 31.7646V29.7854L21.8737 30.8271L22.9154 29.7854Z" fill="white"/>
    <path d="M22.9154 21.8688V29.7855L21.8737 30.8271L20.832 29.7855V21.8688C20.832 21.3063 21.2904 20.8271 21.8737 20.8271C22.457 20.8271 22.9154 21.3063 22.9154 21.8688Z" fill="white"/>
    <path d="M21.75 43.8063C22.2917 43.9938 22.5833 44.5771 22.3958 45.1188C22.3125 45.3479 22.2292 45.5979 22.125 45.8271H19.8125C20.0833 45.3896 20.2708 44.9313 20.4375 44.4521C20.5833 44.0146 20.9792 43.7438 21.4167 43.7438C21.5208 43.7438 21.6458 43.7646 21.75 43.8063Z" fill="white"/>
    <path d="M25.7279 29.9104L22.6029 33.0354C22.4154 33.2229 22.1445 33.3271 21.8737 33.3271C21.6029 33.3271 21.332 33.2229 21.1445 33.0354L18.0195 29.9104C17.6029 29.4938 17.6029 28.8479 18.0195 28.4313C18.4154 28.0354 19.082 28.0354 19.4779 28.4313L20.832 29.7854V31.7646C20.832 32.3479 21.2904 32.8063 21.8737 32.8063C22.457 32.8063 22.9154 32.3479 22.9154 31.7646V29.7854L24.2487 28.4313C24.6654 28.0354 25.332 28.0354 25.7279 28.4313C26.1445 28.8479 26.1445 29.4938 25.7279 29.9104Z" fill="white"/>
    <path d="M20.9787 47.9105H29.0203C28.562 47.2646 28.1662 46.5563 27.8537 45.8271H30.187C30.6453 46.6813 31.2495 47.4938 31.9787 48.223C32.2912 48.5146 32.3745 48.973 32.2078 49.348C32.0412 49.7438 31.6662 49.9938 31.2495 49.9938H18.7495C18.3328 49.9938 17.937 49.7438 17.7912 49.348C17.6245 48.973 17.7078 48.5146 18.0203 48.223C18.7495 47.473 19.3537 46.6813 19.812 45.8271H22.1245C21.8328 46.5563 21.4578 47.2438 20.9787 47.9105Z" fill="white"/>
    <path d="M10.4154 39.5771V41.6605H9.3737C8.79036 41.6605 8.33203 41.2021 8.33203 40.6188C8.33203 40.0563 8.79036 39.5771 9.3737 39.5771H10.4154Z" fill="white"/>
    <path d="M11.457 24.9937C10.8737 24.9937 10.4154 25.4729 10.4154 26.0354V39.5771H9.3737C8.79036 39.5771 8.33203 40.0562 8.33203 40.6187V28.7854V26.0354C8.33203 24.3271 9.72786 22.9104 11.457 22.9104H15.6237C16.207 22.9104 16.6654 23.3896 16.6654 23.9521C16.6654 24.5354 16.207 24.9937 15.6237 24.9937H11.457Z" fill="white"/>
    <path d="M11.457 43.7438H21.4154C20.9779 43.7438 20.582 44.0146 20.4362 44.4521C20.2695 44.9313 20.082 45.3896 19.8112 45.8271H11.457C9.72786 45.8271 8.33203 44.4313 8.33203 42.7021V40.6188C8.33203 41.2021 8.79036 41.6604 9.3737 41.6604H10.4154V42.7021C10.4154 43.2854 10.8737 43.7438 11.457 43.7438Z" fill="white"/>
    <path d="M9.70833 12.5354C11.1458 5.32711 17.5625 -0.00622559 25 -0.00622559C30.8333 -0.00622559 36.2083 3.28544 38.8542 8.43127C45.1458 9.07711 50 14.4313 50 20.8271C50 23.4313 49.2083 25.9104 47.7292 28.0146C47.3958 28.4938 46.75 28.5979 46.2708 28.2646C45.9792 28.0563 45.8333 27.7438 45.8333 27.4104C45.8333 27.2021 45.8958 26.9938 46.0208 26.8063C47.2708 25.0771 47.9167 22.9938 47.9167 20.8271C47.9167 15.3271 43.625 10.7646 38.125 10.4521C37.75 10.4313 37.3958 10.2021 37.25 9.84794C35.0417 5.13961 30.2292 2.07711 25 2.07711C18.2917 2.07711 12.5417 7.07711 11.6042 13.6813C11.5417 14.2021 11.1042 14.5771 10.5833 14.5771C5.8125 14.5771 2.08333 18.3271 2.08333 22.9104C2.08333 24.8479 2.72917 26.6604 3.9375 28.1396C4.08333 28.3271 4.16667 28.5563 4.16667 28.7854C4.16667 29.0979 4.04167 29.3896 3.79167 29.5979C3.58333 29.7646 3.35417 29.8271 3.125 29.8271C2.83333 29.8271 2.52083 29.7021 2.3125 29.4521C0.791667 27.5979 0 25.3479 0 22.9104C0 17.4104 4.29167 12.8896 9.70833 12.5354Z" fill="white"/>
  </g>
  <defs>
    <clipPath id="clip0_2301_3830">
      <rect width="50" height="50" fill="white"/>
    </clipPath>
  </defs>
</svg>