<svg xmlns="http://www.w3.org/2000/svg" width="50" height="50" viewBox="0 0 50 50" fill="none">
  <g clip-path="url(#clip0_2301_3870)">
    <path d="M48.7179 40.565L9.53285 1.37987C7.82388 -0.329098 5.05321 -0.329098 3.34691 1.37987L1.28173 3.44185C-0.427243 5.15136 -0.427243 7.92202 1.28173 9.62832L40.4668 48.8134C42.1763 50.5224 44.947 50.5224 46.6533 48.8134L48.7153 46.7514C50.4274 45.0451 50.4274 42.2739 48.7179 40.565Z" fill="white"/>
    <path d="M40.4668 1.37984L1.28173 40.5649C-0.427243 42.2739 -0.427243 45.0451 1.28173 46.7514L3.34371 48.8134C5.05321 50.5223 7.82388 50.5223 9.53018 48.8134L48.7179 9.63096C50.4274 7.92199 50.4274 5.15132 48.7179 3.44502L46.656 1.38304C44.947 -0.329132 42.1763 -0.329132 40.4668 1.37984Z" fill="white"/>
  </g>
  <defs>
    <clipPath id="clip0_2301_3870">
      <rect width="50" height="50" fill="white"/>
    </clipPath>
  </defs>
</svg>