<svg xmlns="http://www.w3.org/2000/svg" width="50" height="50" viewBox="0 0 50 50" fill="none">
  <path d="M24.9997 6.73083C14.926 6.73083 6.73047 14.9264 6.73047 25.0001C6.73047 35.0738 14.926 43.2693 24.9997 43.2693C35.0734 43.2693 43.2689 35.0738 43.2689 25.0001C43.2689 14.9264 35.0734 6.73083 24.9997 6.73083ZM25.9612 41.3172V35.9753L27.2044 37.2184C27.5801 37.5939 28.1886 37.5938 28.5643 37.2184C28.9398 36.843 28.9398 36.2341 28.5643 35.8585C25.4608 32.756 25.5971 32.8481 25.3268 32.7506C25.0945 32.6664 24.8311 32.6708 24.5896 32.7852C24.3807 32.8834 24.4753 32.8193 21.4353 35.8585C21.0598 36.234 21.0598 36.8429 21.4353 37.2184C21.8108 37.5938 22.4196 37.5938 22.7952 37.2184L24.0382 35.9754V41.3173C15.789 40.8362 9.16355 34.2107 8.68258 25.9616H14.0245L12.7813 27.2048C12.4059 27.5803 12.4059 28.1891 12.7813 28.5647C13.1569 28.9402 13.7657 28.9401 14.1412 28.5647L17.0259 25.6801C17.3027 25.4073 17.3924 24.9647 17.215 24.5907C17.1132 24.3739 17.1926 24.4893 14.1412 21.4356C13.7658 21.0602 13.1569 21.0602 12.7813 21.4356C12.4059 21.8111 12.4059 22.42 12.7813 22.7955L14.0245 24.0385H8.68258C9.16355 15.7894 15.789 9.16391 24.0382 8.68295V14.0249L22.795 12.7817C22.4195 12.4062 21.8107 12.4062 21.4351 12.7817C21.0596 13.1572 21.0596 13.766 21.4351 14.1416C24.4478 17.1464 24.3231 17.0505 24.4656 17.1457C24.7399 17.3301 25.1036 17.3596 25.4082 17.2158C25.6254 17.114 25.5243 17.1807 28.5642 14.1417C28.9397 13.7662 28.9397 13.1574 28.5642 12.7818C28.1886 12.4063 27.58 12.4063 27.2043 12.7818L25.9612 14.0249V8.68295C34.2104 9.16391 40.8358 15.7894 41.3168 24.0385H35.9749L37.2181 22.7954C37.5935 22.4199 37.5935 21.811 37.2181 21.4354C36.8425 21.06 36.2338 21.06 35.8582 21.4354C32.8051 24.4894 32.8825 24.3818 32.7835 24.5924C32.66 24.8537 32.657 25.175 32.8057 25.4537C32.9056 25.6377 32.7973 25.5002 35.8581 28.5646C36.2337 28.9401 36.8423 28.94 37.218 28.5646C37.5934 28.1891 37.5934 27.5803 37.218 27.2047L35.975 25.9616H41.3169C40.8359 34.2107 34.2104 40.8362 25.9612 41.3172Z" fill="white"/>
  <path d="M27.3953 23.7194C27.7036 23.2605 27.8837 22.7086 27.8837 22.1155C27.8837 20.5249 26.5897 19.2308 24.9991 19.2308C23.4085 19.2308 22.1145 20.5249 22.1145 22.1155C22.1145 22.7086 22.2947 23.2605 22.6028 23.7194C21.163 24.5509 20.1914 26.1059 20.1914 27.8847V29.8078C20.1914 30.3387 20.6219 30.7693 21.1529 30.7693H28.8453C29.3762 30.7693 29.8068 30.3387 29.8068 29.8078V27.8847C29.8068 26.1059 28.8352 24.5509 27.3953 23.7194ZM24.0376 22.1155C24.0376 21.5853 24.4689 21.1539 24.9991 21.1539C25.5293 21.1539 25.9606 21.5853 25.9606 22.1155C25.9606 22.6456 25.5293 23.077 24.9991 23.077C24.4689 23.077 24.0376 22.6456 24.0376 22.1155ZM27.8837 28.8462H22.1145V27.8847C22.1145 26.2941 23.4085 25.0001 24.9991 25.0001C26.5897 25.0001 27.8837 26.2941 27.8837 27.8847V28.8462Z" fill="white"/>
  <path d="M47.1142 46.1539H34.2501C42.3198 42.622 48.0757 34.5399 48.0757 25C48.0757 12.246 37.7545 1.9231 24.9988 1.9231C12.245 1.9231 1.92188 12.2442 1.92188 25C1.92188 34.5144 7.66611 42.6168 15.7475 46.1539H2.88341C2.35236 46.1539 1.92188 46.5844 1.92188 47.1154C1.92188 47.6464 2.35236 48.0769 2.88341 48.0769H47.1142C47.6451 48.0769 48.0757 47.6464 48.0757 47.1154C48.0757 46.5844 47.6451 46.1539 47.1142 46.1539ZM3.84495 25C3.84495 13.3357 13.3345 3.84617 24.9988 3.84617C36.6631 3.84617 46.1526 13.3357 46.1526 25C46.1526 36.6643 36.6631 46.1539 24.9988 46.1539C13.3345 46.1539 3.84495 36.6643 3.84495 25Z" fill="white"/>
</svg>