<svg xmlns="http://www.w3.org/2000/svg" width="50" height="50" viewBox="0 0 50 50" fill="none">
  <g clip-path="url(#clip0_2301_3743)">
    <path d="M34.3614 13.2195C33.3915 12.2387 31.8111 12.2263 30.8259 13.1919L12.3467 31.4555L4.31367 23.1393C3.35557 22.1407 1.7694 22.108 0.770926 23.0661C-0.227659 24.0242 -0.260435 25.6103 0.697668 26.6088C0.702009 26.6133 0.706242 26.6177 0.710583 26.6222L10.5052 36.7725C10.9739 37.2507 11.6146 37.5215 12.2842 37.5242H12.3118C12.9687 37.5222 13.5986 37.2621 14.0657 36.8001L34.3388 16.7549C35.3183 15.7836 35.3283 14.2033 34.3614 13.2195Z" fill="white"/>
    <path d="M25.5376 36.7726C26.0052 37.2496 26.6438 37.5201 27.3117 37.5243H27.3392C27.9962 37.5222 28.6261 37.2622 29.0932 36.8001L49.3664 16.755C50.2853 15.7203 50.1914 14.1366 49.1568 13.2177C48.2188 12.3846 46.8093 12.3736 45.8585 13.1919L27.3868 31.4556L26.7278 30.7715C25.7698 29.7729 24.1836 29.7401 23.185 30.6982C22.1865 31.6561 22.1536 33.2423 23.1117 34.2409C23.116 34.2455 23.1204 34.2499 23.1247 34.2544L25.5376 36.7726Z" fill="white"/>
  </g>
  <defs>
    <clipPath id="clip0_2301_3743">
      <rect width="50" height="50" fill="white"/>
    </clipPath>
  </defs>
</svg>