<svg xmlns="http://www.w3.org/2000/svg" width="50" height="50" viewBox="0 0 50 50" fill="none">
  <path d="M42.7809 26.6914H38.9141C39.3082 27.7705 39.5235 28.9351 39.5235 30.1488V44.7631C39.5235 45.2692 39.4355 45.7549 39.2752 46.2067H45.6679C48.0559 46.2067 49.9986 44.2639 49.9986 41.876V33.9091C49.9987 29.9293 46.7608 26.6914 42.7809 26.6914Z" fill="white"/>
  <path d="M10.4751 30.1491C10.4751 28.9352 10.6905 27.7708 11.0846 26.6917H7.21779C3.2379 26.6917 0 29.9295 0 33.9094V41.8763C0 44.2642 1.94268 46.207 4.33067 46.207H10.7235C10.5632 45.7551 10.4751 45.2694 10.4751 44.7634V30.1491Z" fill="white"/>
  <path d="M29.4211 22.9312H20.5811C16.6012 22.9312 13.3633 26.169 13.3633 30.1489V44.7632C13.3633 45.5604 14.0096 46.2068 14.8068 46.2068H35.1954C35.9926 46.2068 36.6389 45.5605 36.6389 44.7632V30.1489C36.6389 26.169 33.401 22.9312 29.4211 22.9312Z" fill="white"/>
  <path d="M25.0006 3.79297C20.2143 3.79297 16.3203 7.68692 16.3203 12.4734C16.3203 15.7199 18.1122 18.5554 20.7585 20.0441C22.0137 20.7501 23.4608 21.1536 25.0006 21.1536C26.5405 21.1536 27.9875 20.7501 29.2427 20.0441C31.8891 18.5554 33.6809 15.7198 33.6809 12.4734C33.6809 7.68702 29.7869 3.79297 25.0006 3.79297Z" fill="white"/>
  <path d="M9.75734 11.8838C6.17774 11.8838 3.26562 14.7959 3.26562 18.3755C3.26562 21.9551 6.17774 24.8672 9.75734 24.8672C10.6653 24.8672 11.53 24.6791 12.3154 24.341C13.6735 23.7564 14.7932 22.7214 15.4861 21.425C15.9724 20.5152 16.2491 19.4772 16.2491 18.3755C16.2491 14.796 13.3369 11.8838 9.75734 11.8838Z" fill="white"/>
  <path d="M40.2417 11.8838C36.6621 11.8838 33.75 14.7959 33.75 18.3755C33.75 19.4773 34.0267 20.5153 34.513 21.425C35.2059 22.7215 36.3256 23.7565 37.6836 24.341C38.4691 24.6791 39.3337 24.8672 40.2417 24.8672C43.8213 24.8672 46.7334 21.9551 46.7334 18.3755C46.7334 14.7959 43.8213 11.8838 40.2417 11.8838Z" fill="white"/>
</svg>