<svg xmlns="http://www.w3.org/2000/svg" width="50" height="50" viewBox="0 0 50 50" fill="none">
  <path d="M25 26.5625C24.8802 26.5625 24.7604 26.535 24.6506 26.4801L18.75 23.5298V28.125H31.25V23.5298L25.3494 26.4801C25.2396 26.535 25.1198 26.5625 25 26.5625Z" fill="white"/>
  <path d="M25 25L31.25 21.875H18.75L25 25Z" fill="white"/>
  <path d="M46.083 29.7371L43.7423 28.4111C43.9635 27.2598 44.0757 26.1169 44.0757 25C44.0757 23.8831 43.9635 22.7402 43.7423 21.5889L46.083 20.2629C46.4469 20.0562 46.7132 19.7121 46.8215 19.3077C46.9299 18.9034 46.8719 18.4723 46.659 18.1114L41.883 9.99222C41.4512 9.25751 40.5097 9.00421 39.7659 9.42459L37.4 10.7658C35.6155 9.26514 33.5532 8.09555 31.3384 7.32803V4.6875C31.3384 3.82462 30.6388 3.125 29.7759 3.125H20.2239C19.361 3.125 18.6614 3.82462 18.6614 4.6875V7.32803C16.4474 8.09555 14.3851 9.26514 12.6006 10.7658L10.234 9.42459C9.48936 9.00269 8.54866 9.25751 8.11684 9.99222L3.34083 18.1114C3.12797 18.4723 3.06999 18.9034 3.17833 19.3077C3.28667 19.7121 3.55293 20.0562 3.91685 20.2629L6.25755 21.5889C6.0363 22.7402 5.92415 23.8831 5.92415 25C5.92415 26.1169 6.0363 27.2598 6.25755 28.4111L3.91685 29.7371C3.55293 29.9438 3.28667 30.2879 3.17833 30.6923C3.06999 31.0966 3.12797 31.5277 3.34083 31.8886L8.11684 40.0078C8.54866 40.7425 9.49089 40.995 10.234 40.5754L12.6006 39.2342C14.3851 40.7349 16.4474 41.9044 18.6614 42.672V45.3125C18.6614 46.1754 19.361 46.875 20.2239 46.875H29.7759C30.6388 46.875 31.3384 46.1754 31.3384 45.3125V42.672C33.5532 41.9044 35.6155 40.7349 37.4 39.2342L39.7659 40.5754C40.5082 40.9935 41.4512 40.7425 41.883 40.0078L46.659 31.8886C46.8719 31.5277 46.9299 31.0966 46.8215 30.6923C46.7132 30.2879 46.4469 29.9438 46.083 29.7371ZM26.1636 37.4411L23.2085 40.3961C23.056 40.5487 22.8561 40.625 22.6562 40.625C22.4563 40.625 22.2564 40.5487 22.1038 40.3961C21.7986 40.0909 21.7986 39.5966 22.1038 39.2914L23.9485 37.4467C17.5474 36.9098 12.4999 31.5374 12.4999 25C12.4999 18.5004 17.488 13.1484 23.8362 12.5589L26.7913 9.60388C27.0965 9.29871 27.5909 9.29871 27.896 9.60388C28.2012 9.90906 28.2012 10.4034 27.896 10.7086L26.0513 12.5533C32.4524 13.0902 37.4999 18.4626 37.4999 25C37.4999 31.4996 32.5118 36.8516 26.1636 37.4411Z" fill="white"/>
  <path d="M26.1693 14.1271L27.8961 15.8539C28.2013 16.1591 28.2013 16.6535 27.8961 16.9586C27.7435 17.1112 27.5436 17.1875 27.3438 17.1875C27.1439 17.1875 26.944 17.1112 26.7914 16.9586L23.9485 14.1157C18.4093 14.6469 14.0625 19.3239 14.0625 25C14.0625 30.6358 18.3478 35.2873 23.8307 35.8729L22.1039 34.1461C21.7987 33.841 21.7987 33.3466 22.1039 33.0414C22.4091 32.7362 22.9034 32.7362 23.2086 33.0414L26.0515 35.8843C31.5907 35.3531 35.9375 30.6761 35.9375 25C35.9375 19.3642 31.6522 14.7127 26.1693 14.1271ZM32.8125 21.0938V28.9063C32.8125 29.3381 32.4631 29.6875 32.0312 29.6875H17.9688C17.5369 29.6875 17.1875 29.3381 17.1875 28.9063V21.0938C17.1875 20.6619 17.5369 20.3125 17.9688 20.3125H32.0312C32.4631 20.3125 32.8125 20.6619 32.8125 21.0938Z" fill="white"/>
</svg>