<svg xmlns="http://www.w3.org/2000/svg" width="50" height="50" viewBox="0 0 50 50" fill="none">
  <g clip-path="url(#clip0_2301_3797)">
    <path d="M37.8525 30.1982V10.1582C37.8525 9.21626 37.0862 8.44995 36.1443 8.44995H11.2707C10.3288 8.44995 9.5625 9.21626 9.5625 10.1582V30.1981C9.5625 31.14 10.3288 31.9063 11.2707 31.9063H36.1443C37.0862 31.9064 37.8525 31.1401 37.8525 30.1982ZM11.0267 30.1982V22.3743L14.9032 18.4976C14.9653 18.4354 15.038 18.4261 15.0758 18.4261C15.1136 18.4261 15.186 18.4354 15.2483 18.4976L16.0825 19.3318C16.3683 19.6177 16.8318 19.6176 17.1179 19.3318C17.4037 19.0458 17.4037 18.5824 17.1178 18.2964L16.2837 17.4624C15.9611 17.1397 15.5321 16.962 15.0759 16.962C14.6195 16.962 14.1906 17.1396 13.868 17.4623L11.0269 20.3035V10.1582C11.0269 10.0236 11.1363 9.91411 11.2709 9.91411H36.1445C36.2791 9.91411 36.3886 10.0236 36.3886 10.1582V30.1981C36.3886 30.3327 36.2791 30.4421 36.1445 30.4421H35.4304L26.3092 21.3209C25.6431 20.655 24.5595 20.655 23.8934 21.3209L22.0181 23.1963L19.4508 20.6291C19.1649 20.3431 18.7015 20.3431 18.4153 20.6291C18.1295 20.9149 18.1295 21.3785 18.4153 21.6644L21.1553 24.4043C21.3857 24.6347 21.6922 24.7617 22.0181 24.7617C22.3439 24.7617 22.6505 24.6347 22.8809 24.4042L24.9288 22.3563C25.0239 22.2612 25.1787 22.2612 25.2739 22.3563L33.3597 30.4421H11.2707C11.1361 30.4421 11.0267 30.3327 11.0267 30.1982Z" fill="white"/>
    <path d="M42.7666 35.7814V26.4058C42.7666 26.0015 42.4389 25.6736 42.0345 25.6736C41.6301 25.6736 41.3023 26.0014 41.3023 26.4058V34.6775C40.0758 33.9512 38.6464 33.5324 37.1204 33.5324C32.9292 33.5324 29.4618 36.681 28.9533 40.7366H6.84473C6.44102 40.7366 6.1126 40.4082 6.1126 40.0045V2.19629C6.1126 1.79258 6.44102 1.46416 6.84473 1.46416H40.5702C40.9739 1.46416 41.3023 1.79258 41.3023 2.19629V22.7586C41.3023 23.1629 41.6301 23.4907 42.0345 23.4907C42.4389 23.4907 42.7666 23.163 42.7666 22.7586V2.19629C42.7666 0.985254 41.7813 0 40.5703 0H6.84473C5.63369 0 4.64844 0.985254 4.64844 2.19629V40.0045C4.64844 41.2155 5.63369 42.2008 6.84473 42.2008H28.8993C28.9778 43.7106 29.4638 45.1572 30.319 46.4082C30.5473 46.742 31.0029 46.8274 31.3365 46.5994C31.6703 46.3712 31.756 45.9156 31.5277 45.5818C30.7578 44.4557 30.3509 43.1362 30.3509 41.7662C30.3509 38.0334 33.3877 34.9967 37.1204 34.9967C40.8531 34.9967 43.8899 38.0335 43.8899 41.7662C43.8899 45.4989 40.8531 48.5358 37.1204 48.5358C36.0076 48.5358 34.9046 48.2603 33.9306 47.7389C33.574 47.5481 33.1304 47.6824 32.9396 48.0388C32.7488 48.3952 32.8831 48.8389 33.2396 49.0297C34.4254 49.6645 35.7674 49.9999 37.1204 49.9999C41.6605 49.9999 45.3542 46.3063 45.3542 41.7661C45.3542 39.4102 44.358 37.2837 42.7666 35.7814Z" fill="white"/>
    <path d="M37.1204 37.999C36.716 37.999 36.3883 38.3268 36.3883 38.7312V41.0553H34.0642C33.6598 41.0553 33.332 41.383 33.332 41.7874C33.332 42.1918 33.6598 42.5195 34.0642 42.5195H36.3883V44.8437C36.3883 45.2479 36.716 45.5758 37.1204 45.5758C37.5248 45.5758 37.8525 45.248 37.8525 44.8437V42.5195H40.1767C40.5811 42.5195 40.9088 42.1918 40.9088 41.7874C40.9088 41.383 40.5811 41.0553 40.1767 41.0553H37.8525V38.7312C37.8524 38.3269 37.5247 37.999 37.1204 37.999Z" fill="white"/>
    <path d="M12.3415 35.439C12.3975 34.8755 11.9862 34.3732 11.4226 34.3171C10.8591 34.2611 10.3568 34.6725 10.3007 35.236C10.2447 35.7995 10.6561 36.3018 11.2196 36.3579C11.7831 36.4139 12.2854 36.0026 12.3415 35.439Z" fill="white"/>
    <path d="M15.9665 35.4395C16.0225 34.876 15.6112 34.3737 15.0476 34.3176C14.4841 34.2616 13.9818 34.6729 13.9257 35.2365C13.8697 35.8 14.2811 36.3023 14.8446 36.3584C15.4081 36.4144 15.9104 36.0031 15.9665 35.4395Z" fill="white"/>
    <path d="M19.5915 35.44C19.6475 34.8765 19.2362 34.3742 18.6726 34.3181C18.1091 34.2621 17.6068 34.6734 17.5507 35.237C17.4947 35.8005 17.9061 36.3028 18.4696 36.3588C19.0331 36.4149 19.5354 36.0035 19.5915 35.44Z" fill="white"/>
    <path d="M26.5215 6.08535C26.9259 6.08535 27.2536 5.75762 27.2536 5.35322C27.2536 4.94883 26.9259 4.62109 26.5215 4.62109H23.3493C22.9449 4.62109 22.6172 4.94883 22.6172 5.35322C22.6172 5.75762 22.9449 6.08535 23.3493 6.08535H26.5215Z" fill="white"/>
    <path d="M19.595 6.08535C19.9994 6.08535 20.3271 5.75762 20.3271 5.35322C20.3271 4.94883 19.9994 4.62109 19.595 4.62109H10.9313C10.527 4.62109 10.1992 4.94883 10.1992 5.35322C10.1992 5.75762 10.527 6.08535 10.9313 6.08535H19.595Z" fill="white"/>
    <path d="M29.9094 18.7187C31.3392 18.7187 32.5023 17.5555 32.5023 16.1257C32.5023 14.6959 31.3392 13.5327 29.9094 13.5327C28.4796 13.5327 27.3164 14.6959 27.3164 16.1257C27.3164 17.5555 28.4796 18.7187 29.9094 18.7187ZM29.9094 14.997C30.5317 14.997 31.0381 15.5033 31.0381 16.1257C31.0381 16.748 30.5317 17.2544 29.9094 17.2544C29.287 17.2544 28.7807 16.748 28.7807 16.1257C28.7806 15.5034 29.287 14.997 29.9094 14.997Z" fill="white"/>
  </g>
  <defs>
    <clipPath id="clip0_2301_3797">
      <rect width="50" height="50" fill="white"/>
    </clipPath>
  </defs>
</svg>