<svg xmlns="http://www.w3.org/2000/svg" width="50" height="50" viewBox="0 0 50 50" fill="none">
  <path d="M44.9984 44.9999V30.3499C44.9984 23.1499 43.4484 17.6499 35.0484 17.6499C30.9984 17.6499 28.2984 19.8499 27.1984 21.9499H27.0984V18.2999H19.1484V44.9999H27.4484V31.7499C27.4484 28.2499 28.0984 24.8999 32.3984 24.8999C36.6484 24.8999 36.6984 28.8499 36.6984 31.9499V44.9499H44.9984V44.9999Z" fill="white"/>
  <path d="M5.64844 18.3H13.9484V45H5.64844V18.3Z" fill="white"/>
  <path d="M9.8 5C7.15 5 5 7.15 5 9.8C5 12.45 7.15 14.65 9.8 14.65C12.45 14.65 14.6 12.45 14.6 9.8C14.6 7.15 12.45 5 9.8 5Z" fill="white"/>
</svg>